<svg id="_x33_0" enable-background="new 0 0 64 64" height="512" viewBox="0 0 64 64" width="512" xmlns="http://www.w3.org/2000/svg"><g><path d="m21 23h6v2h-6z"/><path d="m15 27h12v2h-12z"/><path d="m15 31h12v2h-12z"/><path d="m15 35h12v2h-12z"/><path d="m15 39h2v2h-2z"/><path d="m19 39h2v2h-2z"/><path d="m23 39h2v2h-2z"/><path d="m43 7h6v2h-6z"/><path d="m37 11h12v2h-12z"/><path d="m37 15h12v2h-12z"/><path d="m37 19h12v2h-12z"/><path d="m43 23h2v2h-2z"/><path d="m47 23h2v2h-2z"/><path d="m60 9h-7v-8h-13.414l-6.586 6.586v1.414h-7c-1.654 0-3 1.346-3 3v5h-5.414l-6.586 6.586v1.414h-7c-1.654 0-3 1.346-3 3v24c0 1.654 1.346 3 3 3h9v2c-2.206 0-4 1.794-4 4 0 1.103.897 2 2 2h20c1.103 0 2-.897 2-2 0-2.206-1.794-4-4-4v-2h9c1.654 0 3-1.346 3-3v-5h12c1.103 0 2-.897 2-2 0-2.206-1.794-4-4-4v-2h9c1.654 0 3-1.346 3-3v-24c0-1.654-1.346-3-3-3zm0 2c.551 0 1 .449 1 1v19h-20v-2h12v-18zm-9 16h-10.184c-.414-1.161-1.514-2-2.816-2h-3v-16h6v-6h10zm-14.586-20 2.586-2.586v2.586zm-11.414 5c0-.551.449-1 1-1h7v14h-2v-8h-6zm-12 13h6v-6h10v24h-16zm1.414-2 2.586-2.586v2.586zm-10.414 4h7v18h20v-18h7c.551 0 1 .449 1 1v19h-36v-19c0-.551.449-1 1-1zm27.001 34h-20.001c0-1.103.897-2 2-2h16c1.103 0 2 .897 2.001 2zm-4.001-4h-12v-2h12zm11-4h-34c-.551 0-1-.449-1-1v-3h36v3c0 .551-.449 1-1 1zm15-8h-12v-2h10c1.103 0 2 .897 2 2zm-4-4h-8v-2h8zm11-4h-19v-4h20v3c0 .551-.449 1-1 1z"/></g></svg>