<svg height="512" viewBox="0 0 60 54" width="512" xmlns="http://www.w3.org/2000/svg"><g id="Page-1" fill="none" fill-rule="evenodd"><g id="015---AR-Object-Desktop" fill="rgb(0,0,0)" fill-rule="nonzero"><path id="Shape" d="m53 0h-46c-3.86416566.00440864-6.99559136 3.13583434-7 7v40c.00440864 3.8641657 3.13583434 6.9955914 7 7h46c3.8641657-.0044086 6.9955914-3.1358343 7-7v-40c-.0044086-3.86416566-3.1358343-6.99559136-7-7zm5 47c-.0033061 2.7600532-2.2399468 4.9966939-5 5h-46c-2.76005315-.0033061-4.99669388-2.2399468-5-5v-40c.00330612-2.76005315 2.23994685-4.99669388 5-5h46c2.7600532.00330612 4.9966939 2.23994685 5 5z"/><path id="Shape" d="m53 8h-46c-1.65685425 0-3 1.34314575-3 3v36c0 1.6568542 1.34314575 3 3 3h46c1.6568542 0 3-1.3431458 3-3v-36c0-1.65685425-1.3431458-3-3-3zm-23 19.864-10.891-5.864 10.891-5.864 10.891 5.864zm12-4.19v11.726l-11 5.926v-11.726zm-13 5.926v11.726l-11-5.926v-11.726zm-23-18.6c0-.5522847.44771525-1 1-1h22v4.4l-12.474 6.72c-.013.007-.028.01-.041.018-.3023938.1816727-.4866943.5092336-.485.862v8.382l-10 5zm48 36c0 .5522847-.4477153 1-1 1h-46c-.55228475 0-1-.4477153-1-1v-9.382l10-5v3.382c.000193.3677348.2022003.7056937.526.88l13 7c.2959236.1593002.6520764.1593002.948 0l13-7c.3237997-.1743063.525807-.5122652.526-.88v-3.382l10 5zm0-11.618-10-5v-8.382c-.0001367-.3517458-.1850653-.6775544-.487-.858-.013-.008-.028-.011-.041-.018l-12.472-6.724v-4.4h22c.5522847 0 1 .4477153 1 1z"/><circle id="Oval" cx="6" cy="5" r="1"/><circle id="Oval" cx="10" cy="5" r="1"/><circle id="Oval" cx="14" cy="5" r="1"/><path id="Shape" d="m39 6h14c.5522847 0 1-.44771525 1-1s-.4477153-1-1-1h-14c-.5522847 0-1 .44771525-1 1s.4477153 1 1 1z"/></g></g></svg>